<svg width="19" height="18" viewBox="0 0 19 18" fill="none" xmlns="http://www.w3.org/2000/svg">
<path d="M9.5 1.5C13.6423 1.5 17 4.85775 17 9C17 13.1423 13.6423 16.5 9.5 16.5C5.35775 16.5 2 13.1423 2 9C2 4.85775 5.35775 1.5 9.5 1.5ZM9.5 12C9.30109 12 9.11032 12.079 8.96967 12.2197C8.82902 12.3603 8.75 12.5511 8.75 12.75C8.75 12.9489 8.82902 13.1397 8.96967 13.2803C9.11032 13.421 9.30109 13.5 9.5 13.5C9.69891 13.5 9.88968 13.421 10.0303 13.2803C10.171 13.1397 10.25 12.9489 10.25 12.75C10.25 12.5511 10.171 12.3603 10.0303 12.2197C9.88968 12.079 9.69891 12 9.5 12ZM9.5 4.875C8.77894 4.875 8.08742 5.16144 7.57755 5.6713C7.06769 6.18117 6.78125 6.87269 6.78125 7.59375C6.78125 7.79266 6.86027 7.98343 7.00092 8.12408C7.14157 8.26473 7.33234 8.34375 7.53125 8.34375C7.73016 8.34375 7.92093 8.26473 8.06158 8.12408C8.20223 7.98343 8.28125 7.79266 8.28125 7.59375C8.2815 7.37253 8.34195 7.15554 8.45614 6.96607C8.57032 6.77659 8.73392 6.62176 8.9294 6.51819C9.12488 6.41462 9.34487 6.3662 9.56577 6.37814C9.78667 6.39008 10.0002 6.46192 10.1833 6.58596C10.3665 6.70999 10.5125 6.88155 10.6056 7.08223C10.6987 7.28291 10.7354 7.50514 10.7118 7.7251C10.6882 7.94506 10.6052 8.15446 10.4716 8.33082C10.3381 8.50719 10.1591 8.64389 9.95375 8.72625C9.44675 8.92875 8.75 9.44775 8.75 10.3125V10.5C8.75 10.6989 8.82902 10.8897 8.96967 11.0303C9.11032 11.171 9.30109 11.25 9.5 11.25C9.69891 11.25 9.88968 11.171 10.0303 11.0303C10.171 10.8897 10.25 10.6989 10.25 10.5C10.25 10.317 10.2875 10.2255 10.4457 10.1475L10.511 10.1175C11.0966 9.88192 11.582 9.44997 11.8841 8.89569C12.1861 8.34141 12.2859 7.69934 12.1663 7.07954C12.0468 6.45974 11.7154 5.90082 11.2289 5.4986C10.7425 5.09638 10.1312 4.87592 9.5 4.875Z" fill="white"/>
</svg>
