<svg width="22" height="22" viewBox="0 0 22 22" fill="none" xmlns="http://www.w3.org/2000/svg">
<path d="M6.8703 10.5996H15.5653C15.6806 10.5996 15.7912 10.6417 15.8727 10.7168C15.9542 10.7918 16 10.8935 16 10.9996C16 11.1056 15.9542 11.2074 15.8727 11.2824C15.7912 11.3574 15.6806 11.3995 15.5653 11.3995H6.8703C6.75499 11.3995 6.64441 11.3574 6.56288 11.2824C6.48135 11.2074 6.43555 11.1056 6.43555 10.9996C6.43555 10.8935 6.48135 10.7918 6.56288 10.7168C6.64441 10.6417 6.75499 10.5996 6.8703 10.5996Z" fill="white" stroke="white"/>
<path d="M7.05026 11L10.6561 14.3164C10.7377 14.3915 10.7836 14.4933 10.7836 14.5995C10.7836 14.7058 10.7377 14.8076 10.6561 14.8827C10.5744 14.9578 10.4637 15 10.3483 15C10.2328 15 10.1221 14.9578 10.0405 14.8827L6.12772 11.2832C6.08724 11.246 6.05512 11.2019 6.0332 11.1533C6.01128 11.1047 6 11.0526 6 11C6 10.9474 6.01128 10.8953 6.0332 10.8467C6.05512 10.7981 6.08724 10.754 6.12772 10.7168L10.0405 7.11729C10.1221 7.04219 10.2328 7 10.3483 7C10.4637 7 10.5744 7.04219 10.6561 7.11729C10.7377 7.19239 10.7836 7.29425 10.7836 7.40045C10.7836 7.50666 10.7377 7.60852 10.6561 7.68362L7.05026 11Z" fill="white" stroke="white"/>
</svg>
