<svg width="14" height="14" viewBox="0 0 14 14" fill="none" xmlns="http://www.w3.org/2000/svg">
<g filter="url(#filter0_i_11638_1992)">
<path d="M3.97305 4.7143V3.93555H1.69849C1.66948 3.93555 1.64166 3.94707 1.62115 3.96758C1.60063 3.98809 1.58911 4.01591 1.58911 4.04492V4.05805C1.58911 4.2321 1.65825 4.39901 1.78132 4.52209C1.90439 4.64516 2.07131 4.7143 2.24536 4.7143H3.97305Z" fill="#CBC8C7"/>
</g>
<g filter="url(#filter1_i_11638_1992)">
<path d="M3.97301 5.48528V4.71484H2.30176C2.24138 4.71484 2.19238 4.76297 2.19238 4.82291V4.83603C2.19238 5.19478 2.48638 5.48528 2.84863 5.48528H3.97301Z" fill="#BDBFBD"/>
</g>
<g filter="url(#filter2_i_11638_1992)">
<path d="M1.13013 3.16602C1.10112 3.16602 1.0733 3.17754 1.05279 3.19805C1.03228 3.21856 1.02075 3.24638 1.02075 3.27539V3.28852C1.02075 3.46256 1.08989 3.62948 1.21296 3.75255C1.33603 3.87563 1.50295 3.94477 1.677 3.94477H3.55825C3.6545 3.94477 3.73325 4.02352 3.73325 4.11977V5.26689C3.73325 5.32491 3.7563 5.38055 3.79732 5.42157C3.83835 5.46259 3.89399 5.48564 3.952 5.48564H4.86375C5.17135 5.48564 5.46636 5.36345 5.68386 5.14594C5.90137 4.92843 6.02356 4.63343 6.02356 4.32583C6.02356 4.01823 5.90137 3.72322 5.68386 3.50572C5.46636 3.28821 5.17135 3.16602 4.86375 3.16602H1.13013Z" fill="#D6D2D1"/>
<path d="M1.13013 3.16602C1.10112 3.16602 1.0733 3.17754 1.05279 3.19805C1.03228 3.21856 1.02075 3.24638 1.02075 3.27539V3.28852C1.02075 3.46256 1.08989 3.62948 1.21296 3.75255C1.33603 3.87563 1.50295 3.94477 1.677 3.94477H3.55825C3.6545 3.94477 3.73325 4.02352 3.73325 4.11977V5.26689C3.73325 5.32491 3.7563 5.38055 3.79732 5.42157C3.83835 5.46259 3.89399 5.48564 3.952 5.48564H4.86375C5.17135 5.48564 5.46636 5.36345 5.68386 5.14594C5.90137 4.92843 6.02356 4.63343 6.02356 4.32583C6.02356 4.01823 5.90137 3.72322 5.68386 3.50572C5.46636 3.28821 5.17135 3.16602 4.86375 3.16602H1.13013Z" fill="url(#paint0_radial_11638_1992)"/>
</g>
<path d="M8.03264 2.17927L2.75188 7.46003C2.376 7.83591 2.376 8.44534 2.75188 8.82121L5.75174 11.8211C6.12761 12.197 6.73704 12.197 7.11292 11.8211L12.3937 6.54031C12.7696 6.16443 12.7696 5.55501 12.3937 5.17913L9.39382 2.17927C9.01794 1.80339 8.40852 1.80339 8.03264 2.17927Z" fill="url(#paint1_linear_11638_1992)"/>
<path d="M8.03264 2.17927L2.75188 7.46003C2.376 7.83591 2.376 8.44534 2.75188 8.82121L5.75174 11.8211C6.12761 12.197 6.73704 12.197 7.11292 11.8211L12.3937 6.54031C12.7696 6.16443 12.7696 5.55501 12.3937 5.17913L9.39382 2.17927C9.01794 1.80339 8.40852 1.80339 8.03264 2.17927Z" fill="url(#paint2_linear_11638_1992)"/>
<path d="M8.03264 2.17927L2.75188 7.46003C2.376 7.83591 2.376 8.44534 2.75188 8.82121L5.75174 11.8211C6.12761 12.197 6.73704 12.197 7.11292 11.8211L12.3937 6.54031C12.7696 6.16443 12.7696 5.55501 12.3937 5.17913L9.39382 2.17927C9.01794 1.80339 8.40852 1.80339 8.03264 2.17927Z" fill="url(#paint3_linear_11638_1992)"/>
<path d="M8.03264 2.17927L2.75188 7.46003C2.376 7.83591 2.376 8.44534 2.75188 8.82121L5.75174 11.8211C6.12761 12.197 6.73704 12.197 7.11292 11.8211L12.3937 6.54031C12.7696 6.16443 12.7696 5.55501 12.3937 5.17913L9.39382 2.17927C9.01794 1.80339 8.40852 1.80339 8.03264 2.17927Z" fill="url(#paint4_radial_11638_1992)"/>
<path d="M8.03264 2.17927L2.75188 7.46003C2.376 7.83591 2.376 8.44534 2.75188 8.82121L5.75174 11.8211C6.12761 12.197 6.73704 12.197 7.11292 11.8211L12.3937 6.54031C12.7696 6.16443 12.7696 5.55501 12.3937 5.17913L9.39382 2.17927C9.01794 1.80339 8.40852 1.80339 8.03264 2.17927Z" fill="url(#paint5_radial_11638_1992)"/>
<path d="M7.17498 1.32185L1.89421 6.60261C1.51833 6.97849 1.51833 7.58791 1.89421 7.96379L4.89407 10.9636C5.26995 11.3395 5.87937 11.3395 6.25525 10.9636L11.536 5.68289C11.9119 5.30701 11.9119 4.69759 11.536 4.32171L8.53615 1.32185C8.16028 0.945971 7.55085 0.945971 7.17498 1.32185Z" fill="url(#paint6_radial_11638_1992)"/>
<g filter="url(#filter3_iii_11638_1992)">
<path fill-rule="evenodd" clip-rule="evenodd" d="M7.68078 1.83039L2.40234 7.10839C2.35505 7.15594 2.32851 7.22027 2.32851 7.28733C2.32851 7.35439 2.35505 7.41872 2.40234 7.46627L5.39178 10.4557C5.4393 10.5029 5.50354 10.5293 5.57049 10.5293C5.63745 10.5293 5.70168 10.5029 5.74921 10.4557L11.0272 5.17771C11.0745 5.13016 11.101 5.06583 11.101 4.99877C11.101 4.93171 11.0745 4.86738 11.0272 4.81983L8.03778 1.83039C7.99023 1.78311 7.9259 1.75656 7.85884 1.75656C7.79178 1.75656 7.72745 1.78311 7.6799 1.83039M2.2234 6.92946C2.1285 7.02438 2.0752 7.15311 2.0752 7.28733C2.0752 7.42155 2.1285 7.55028 2.2234 7.64521L5.21284 10.6346C5.30774 10.7294 5.43638 10.7826 5.57049 10.7826C5.70461 10.7826 5.83324 10.7294 5.92815 10.6346L11.2062 5.35664C11.301 5.26172 11.3544 5.13299 11.3544 4.99877C11.3544 4.86455 11.301 4.73582 11.2062 4.64089L8.21671 1.65189C8.12181 1.55713 7.99317 1.50391 7.85906 1.50391C7.72494 1.50391 7.59631 1.55713 7.5014 1.65189L2.2234 6.92946Z" fill="url(#paint7_linear_11638_1992)"/>
</g>
<path d="M8.8879 6.00601C9.49716 5.39674 9.53553 4.44729 8.97359 3.88535C8.41165 3.32341 7.4622 3.36178 6.85293 3.97104C6.24366 4.58031 6.2053 5.52976 6.76724 6.0917C7.32918 6.65364 8.27863 6.61528 8.8879 6.00601Z" fill="#289D5B"/>
<path d="M8.8879 6.00601C9.49716 5.39674 9.53553 4.44729 8.97359 3.88535C8.41165 3.32341 7.4622 3.36178 6.85293 3.97104C6.24366 4.58031 6.2053 5.52976 6.76724 6.0917C7.32918 6.65364 8.27863 6.61528 8.8879 6.00601Z" fill="url(#paint8_linear_11638_1992)"/>
<path d="M8.8879 6.00601C9.49716 5.39674 9.53553 4.44729 8.97359 3.88535C8.41165 3.32341 7.4622 3.36178 6.85293 3.97104C6.24366 4.58031 6.2053 5.52976 6.76724 6.0917C7.32918 6.65364 8.27863 6.61528 8.8879 6.00601Z" fill="url(#paint9_radial_11638_1992)"/>
<g filter="url(#filter4_f_11638_1992)">
<path d="M4.396 4.31603L5.38781 3.32422L9.64118 7.57759L8.61218 8.60659L4.396 4.31603Z" fill="#127531"/>
</g>
<g filter="url(#filter5_f_11638_1992)">
<path d="M9.46587 9.37844L10.4537 8.39056L9.64131 7.57812L8.6123 8.60625L9.46587 9.37844Z" fill="#0B3F2E"/>
</g>
<path d="M4.31128 4.18555L5.35506 3.14177L10.5733 8.36004L9.52955 9.40382L4.31128 4.18555Z" fill="url(#paint10_linear_11638_1992)"/>
<path d="M4.31128 4.18555L5.35506 3.14177L10.5733 8.36004L9.52955 9.40382L4.31128 4.18555Z" fill="url(#paint11_linear_11638_1992)"/>
<g filter="url(#filter6_dii_11638_1992)">
<path d="M4.18918 6.9377C4.15268 6.89844 4.13283 6.84655 4.13382 6.79295C4.13482 6.73935 4.15657 6.68822 4.19451 6.65034C4.23244 6.61247 4.2836 6.59079 4.3372 6.58987C4.3908 6.58896 4.44267 6.60889 4.48187 6.64545L4.64287 6.80645C4.94037 6.62576 5.24312 6.69926 5.41725 6.84101C5.51656 6.92151 5.52837 7.03176 5.45793 7.11883C5.42404 7.16046 5.375 7.18693 5.3216 7.19242C5.26819 7.19792 5.21479 7.18199 5.17312 7.14814C5.11625 7.10176 4.93906 6.9797 4.71943 7.19976C4.40443 7.51476 4.81262 7.93783 5.17793 7.57251C5.33412 7.41589 5.5905 7.34064 5.76943 7.37039C5.95581 7.40058 6.10018 7.4942 6.20256 7.6307C6.35787 7.87701 6.33731 8.13601 6.19687 8.36045L6.35175 8.51533C6.38831 8.55453 6.40824 8.60639 6.40732 8.66C6.40641 8.7136 6.38473 8.76475 6.34685 8.80269C6.30897 8.84062 6.25785 8.86238 6.20425 8.86337C6.15065 8.86437 6.09876 8.84452 6.0595 8.80801L5.90768 8.6562C5.65962 8.81676 5.36825 8.81545 5.11887 8.61901C5.03137 8.54945 5.0095 8.42914 5.07862 8.34164C5.14775 8.25414 5.2755 8.23883 5.363 8.30795C5.40675 8.34251 5.47718 8.38233 5.55375 8.3902C5.61893 8.39764 5.70031 8.38058 5.80006 8.28083C5.92475 8.15614 5.94487 8.04458 5.92518 7.96189C5.88231 7.7252 5.59575 7.66526 5.42643 7.83414C5.19106 8.05114 5.02262 8.10495 4.83406 8.09664C4.6769 8.08974 4.52782 8.02509 4.41537 7.91508C4.31414 7.81267 4.25021 7.67926 4.23381 7.5362C4.2194 7.38043 4.25894 7.22443 4.34581 7.09433L4.18918 6.9377Z" fill="url(#paint12_linear_11638_1992)"/>
</g>
<g filter="url(#filter7_ii_11638_1992)">
<path d="M9.25586 10.1602H10.035V12.4352C10.035 12.4642 10.0235 12.492 10.003 12.5125C9.9825 12.533 9.95468 12.5445 9.92567 12.5445H9.91255C9.7385 12.5445 9.57158 12.4754 9.44851 12.3523C9.32544 12.2292 9.2563 12.0623 9.2563 11.8883L9.25586 10.1602Z" fill="#C8C2C3"/>
</g>
<g filter="url(#filter8_ii_11638_1992)">
<path d="M8.47705 10.1602H9.2558V11.8314C9.2558 11.8604 9.24428 11.8882 9.22377 11.9087C9.20325 11.9293 9.17543 11.9408 9.14643 11.9408H9.1333C8.95925 11.9408 8.79233 11.8716 8.66926 11.7486C8.54619 11.6255 8.47705 11.4586 8.47705 11.2845V10.1602Z" fill="#C8C2C3"/>
</g>
<g filter="url(#filter9_ii_11638_1992)">
<path d="M9.64124 8.10938C9.33313 8.1088 9.03741 8.2306 8.81909 8.44802C8.60078 8.66543 8.47775 8.96065 8.47705 9.26875V10.1809C8.47705 10.2097 8.48274 10.2383 8.49379 10.2649C8.50483 10.2915 8.52103 10.3156 8.54143 10.3359C8.56184 10.3563 8.58605 10.3723 8.6127 10.3833C8.63934 10.3942 8.66788 10.3998 8.69668 10.3997H9.8473C9.87036 10.3996 9.89321 10.404 9.91454 10.4128C9.93587 10.4215 9.95527 10.4344 9.97161 10.4506C9.98795 10.4669 10.0009 10.4862 10.0098 10.5075C10.0186 10.5288 10.0232 10.5516 10.0232 10.5747V12.4555C10.0232 12.8178 10.3181 13.1118 10.6821 13.1118H10.6952C10.7096 13.1119 10.7239 13.1091 10.7373 13.1037C10.7507 13.0982 10.7628 13.0902 10.7731 13.08C10.7833 13.0699 10.7915 13.0578 10.797 13.0444C10.8026 13.0311 10.8054 13.0168 10.8054 13.0024V9.26919C10.8051 9.11659 10.7748 8.96555 10.7161 8.82468C10.6575 8.68381 10.5716 8.55587 10.4635 8.44817C10.3554 8.34047 10.2272 8.25512 10.0861 8.19699C9.94499 8.13886 9.79384 8.10909 9.64124 8.10938Z" fill="#DBD7D7"/>
</g>
<defs>
<filter id="filter0_i_11638_1992" x="1.21411" y="3.81055" width="2.75903" height="0.904297" filterUnits="userSpaceOnUse" color-interpolation-filters="sRGB">
<feFlood flood-opacity="0" result="BackgroundImageFix"/>
<feBlend mode="normal" in="SourceGraphic" in2="BackgroundImageFix" result="shape"/>
<feColorMatrix in="SourceAlpha" type="matrix" values="0 0 0 0 0 0 0 0 0 0 0 0 0 0 0 0 0 0 127 0" result="hardAlpha"/>
<feOffset dx="-0.375" dy="-0.125"/>
<feGaussianBlur stdDeviation="0.25"/>
<feComposite in2="hardAlpha" operator="arithmetic" k2="-1" k3="1"/>
<feColorMatrix type="matrix" values="0 0 0 0 0.647059 0 0 0 0 0.623529 0 0 0 0 0.623529 0 0 0 1 0"/>
<feBlend mode="normal" in2="shape" result="effect1_innerShadow_11638_1992"/>
</filter>
<filter id="filter1_i_11638_1992" x="1.81738" y="4.58984" width="2.15552" height="0.894531" filterUnits="userSpaceOnUse" color-interpolation-filters="sRGB">
<feFlood flood-opacity="0" result="BackgroundImageFix"/>
<feBlend mode="normal" in="SourceGraphic" in2="BackgroundImageFix" result="shape"/>
<feColorMatrix in="SourceAlpha" type="matrix" values="0 0 0 0 0 0 0 0 0 0 0 0 0 0 0 0 0 0 127 0" result="hardAlpha"/>
<feOffset dx="-0.375" dy="-0.125"/>
<feGaussianBlur stdDeviation="0.1875"/>
<feComposite in2="hardAlpha" operator="arithmetic" k2="-1" k3="1"/>
<feColorMatrix type="matrix" values="0 0 0 0 0.580392 0 0 0 0 0.611765 0 0 0 0 0.584314 0 0 0 1 0"/>
<feBlend mode="normal" in2="shape" result="effect1_innerShadow_11638_1992"/>
</filter>
<filter id="filter2_i_11638_1992" x="1.02075" y="3.04102" width="5.00293" height="2.44531" filterUnits="userSpaceOnUse" color-interpolation-filters="sRGB">
<feFlood flood-opacity="0" result="BackgroundImageFix"/>
<feBlend mode="normal" in="SourceGraphic" in2="BackgroundImageFix" result="shape"/>
<feColorMatrix in="SourceAlpha" type="matrix" values="0 0 0 0 0 0 0 0 0 0 0 0 0 0 0 0 0 0 127 0" result="hardAlpha"/>
<feOffset dy="-0.125"/>
<feGaussianBlur stdDeviation="0.1875"/>
<feComposite in2="hardAlpha" operator="arithmetic" k2="-1" k3="1"/>
<feColorMatrix type="matrix" values="0 0 0 0 0.658824 0 0 0 0 0.623529 0 0 0 0 0.627451 0 0 0 1 0"/>
<feBlend mode="normal" in2="shape" result="effect1_innerShadow_11638_1992"/>
</filter>
<filter id="filter3_iii_11638_1992" x="1.9752" y="1.50391" width="9.47905" height="9.3793" filterUnits="userSpaceOnUse" color-interpolation-filters="sRGB">
<feFlood flood-opacity="0" result="BackgroundImageFix"/>
<feBlend mode="normal" in="SourceGraphic" in2="BackgroundImageFix" result="shape"/>
<feColorMatrix in="SourceAlpha" type="matrix" values="0 0 0 0 0 0 0 0 0 0 0 0 0 0 0 0 0 0 127 0" result="hardAlpha"/>
<feOffset dy="0.1"/>
<feGaussianBlur stdDeviation="0.0625"/>
<feComposite in2="hardAlpha" operator="arithmetic" k2="-1" k3="1"/>
<feColorMatrix type="matrix" values="0 0 0 0 0.0941176 0 0 0 0 0.509804 0 0 0 0 0.254902 0 0 0 1 0"/>
<feBlend mode="normal" in2="shape" result="effect1_innerShadow_11638_1992"/>
<feColorMatrix in="SourceAlpha" type="matrix" values="0 0 0 0 0 0 0 0 0 0 0 0 0 0 0 0 0 0 127 0" result="hardAlpha"/>
<feOffset dx="-0.1"/>
<feGaussianBlur stdDeviation="0.0625"/>
<feComposite in2="hardAlpha" operator="arithmetic" k2="-1" k3="1"/>
<feColorMatrix type="matrix" values="0 0 0 0 0.0941176 0 0 0 0 0.509804 0 0 0 0 0.254902 0 0 0 1 0"/>
<feBlend mode="normal" in2="effect1_innerShadow_11638_1992" result="effect2_innerShadow_11638_1992"/>
<feColorMatrix in="SourceAlpha" type="matrix" values="0 0 0 0 0 0 0 0 0 0 0 0 0 0 0 0 0 0 127 0" result="hardAlpha"/>
<feOffset dx="0.1"/>
<feGaussianBlur stdDeviation="0.0625"/>
<feComposite in2="hardAlpha" operator="arithmetic" k2="-1" k3="1"/>
<feColorMatrix type="matrix" values="0 0 0 0 0.172549 0 0 0 0 0.709804 0 0 0 0 0.4 0 0 0 1 0"/>
<feBlend mode="normal" in2="effect2_innerShadow_11638_1992" result="effect3_innerShadow_11638_1992"/>
</filter>
<filter id="filter4_f_11638_1992" x="4.196" y="3.12422" width="5.64512" height="5.6832" filterUnits="userSpaceOnUse" color-interpolation-filters="sRGB">
<feFlood flood-opacity="0" result="BackgroundImageFix"/>
<feBlend mode="normal" in="SourceGraphic" in2="BackgroundImageFix" result="shape"/>
<feGaussianBlur stdDeviation="0.1" result="effect1_foregroundBlur_11638_1992"/>
</filter>
<filter id="filter5_f_11638_1992" x="8.4873" y="7.45312" width="2.09155" height="2.05078" filterUnits="userSpaceOnUse" color-interpolation-filters="sRGB">
<feFlood flood-opacity="0" result="BackgroundImageFix"/>
<feBlend mode="normal" in="SourceGraphic" in2="BackgroundImageFix" result="shape"/>
<feGaussianBlur stdDeviation="0.0625" result="effect1_foregroundBlur_11638_1992"/>
</filter>
<filter id="filter6_dii_11638_1992" x="4.00879" y="6.53984" width="2.44868" height="2.44844" filterUnits="userSpaceOnUse" color-interpolation-filters="sRGB">
<feFlood flood-opacity="0" result="BackgroundImageFix"/>
<feColorMatrix in="SourceAlpha" type="matrix" values="0 0 0 0 0 0 0 0 0 0 0 0 0 0 0 0 0 0 127 0" result="hardAlpha"/>
<feOffset dx="-0.05" dy="0.05"/>
<feGaussianBlur stdDeviation="0.0375"/>
<feComposite in2="hardAlpha" operator="out"/>
<feColorMatrix type="matrix" values="0 0 0 0 0.0901961 0 0 0 0 0.521569 0 0 0 0 0.223529 0 0 0 1 0"/>
<feBlend mode="normal" in2="BackgroundImageFix" result="effect1_dropShadow_11638_1992"/>
<feBlend mode="normal" in="SourceGraphic" in2="effect1_dropShadow_11638_1992" result="shape"/>
<feColorMatrix in="SourceAlpha" type="matrix" values="0 0 0 0 0 0 0 0 0 0 0 0 0 0 0 0 0 0 127 0" result="hardAlpha"/>
<feOffset dx="0.05" dy="-0.05"/>
<feGaussianBlur stdDeviation="0.025"/>
<feComposite in2="hardAlpha" operator="arithmetic" k2="-1" k3="1"/>
<feColorMatrix type="matrix" values="0 0 0 0 0.784314 0 0 0 0 0.760784 0 0 0 0 0.752941 0 0 0 1 0"/>
<feBlend mode="normal" in2="shape" result="effect2_innerShadow_11638_1992"/>
<feColorMatrix in="SourceAlpha" type="matrix" values="0 0 0 0 0 0 0 0 0 0 0 0 0 0 0 0 0 0 127 0" result="hardAlpha"/>
<feOffset dx="-0.05" dy="0.05"/>
<feGaussianBlur stdDeviation="0.025"/>
<feComposite in2="hardAlpha" operator="arithmetic" k2="-1" k3="1"/>
<feColorMatrix type="matrix" values="0 0 0 0 1 0 0 0 0 0.996078 0 0 0 0 0.992157 0 0 0 1 0"/>
<feBlend mode="normal" in2="effect2_innerShadow_11638_1992" result="effect3_innerShadow_11638_1992"/>
</filter>
<filter id="filter7_ii_11638_1992" x="9.10586" y="10.0102" width="1.0793" height="2.53477" filterUnits="userSpaceOnUse" color-interpolation-filters="sRGB">
<feFlood flood-opacity="0" result="BackgroundImageFix"/>
<feBlend mode="normal" in="SourceGraphic" in2="BackgroundImageFix" result="shape"/>
<feColorMatrix in="SourceAlpha" type="matrix" values="0 0 0 0 0 0 0 0 0 0 0 0 0 0 0 0 0 0 127 0" result="hardAlpha"/>
<feOffset dx="0.15" dy="-0.15"/>
<feGaussianBlur stdDeviation="0.1875"/>
<feComposite in2="hardAlpha" operator="arithmetic" k2="-1" k3="1"/>
<feColorMatrix type="matrix" values="0 0 0 0 0.658824 0 0 0 0 0.631373 0 0 0 0 0.635294 0 0 0 1 0"/>
<feBlend mode="normal" in2="shape" result="effect1_innerShadow_11638_1992"/>
<feColorMatrix in="SourceAlpha" type="matrix" values="0 0 0 0 0 0 0 0 0 0 0 0 0 0 0 0 0 0 127 0" result="hardAlpha"/>
<feOffset dx="-0.15" dy="-0.15"/>
<feGaussianBlur stdDeviation="0.1875"/>
<feComposite in2="hardAlpha" operator="arithmetic" k2="-1" k3="1"/>
<feColorMatrix type="matrix" values="0 0 0 0 0.721569 0 0 0 0 0.682353 0 0 0 0 0.690196 0 0 0 1 0"/>
<feBlend mode="normal" in2="effect1_innerShadow_11638_1992" result="effect2_innerShadow_11638_1992"/>
</filter>
<filter id="filter8_ii_11638_1992" x="8.32705" y="10.0102" width="1.07881" height="1.93125" filterUnits="userSpaceOnUse" color-interpolation-filters="sRGB">
<feFlood flood-opacity="0" result="BackgroundImageFix"/>
<feBlend mode="normal" in="SourceGraphic" in2="BackgroundImageFix" result="shape"/>
<feColorMatrix in="SourceAlpha" type="matrix" values="0 0 0 0 0 0 0 0 0 0 0 0 0 0 0 0 0 0 127 0" result="hardAlpha"/>
<feOffset dx="0.15" dy="-0.15"/>
<feGaussianBlur stdDeviation="0.1875"/>
<feComposite in2="hardAlpha" operator="arithmetic" k2="-1" k3="1"/>
<feColorMatrix type="matrix" values="0 0 0 0 0.611765 0 0 0 0 0.603922 0 0 0 0 0.596078 0 0 0 1 0"/>
<feBlend mode="normal" in2="shape" result="effect1_innerShadow_11638_1992"/>
<feColorMatrix in="SourceAlpha" type="matrix" values="0 0 0 0 0 0 0 0 0 0 0 0 0 0 0 0 0 0 127 0" result="hardAlpha"/>
<feOffset dx="-0.15" dy="-0.15"/>
<feGaussianBlur stdDeviation="0.1875"/>
<feComposite in2="hardAlpha" operator="arithmetic" k2="-1" k3="1"/>
<feColorMatrix type="matrix" values="0 0 0 0 0.635294 0 0 0 0 0.611765 0 0 0 0 0.607843 0 0 0 1 0"/>
<feBlend mode="normal" in2="effect1_innerShadow_11638_1992" result="effect2_innerShadow_11638_1992"/>
</filter>
<filter id="filter9_ii_11638_1992" x="8.22705" y="8.03437" width="2.65337" height="5.07695" filterUnits="userSpaceOnUse" color-interpolation-filters="sRGB">
<feFlood flood-opacity="0" result="BackgroundImageFix"/>
<feBlend mode="normal" in="SourceGraphic" in2="BackgroundImageFix" result="shape"/>
<feColorMatrix in="SourceAlpha" type="matrix" values="0 0 0 0 0 0 0 0 0 0 0 0 0 0 0 0 0 0 127 0" result="hardAlpha"/>
<feOffset dx="0.075" dy="-0.075"/>
<feGaussianBlur stdDeviation="0.125"/>
<feComposite in2="hardAlpha" operator="arithmetic" k2="-1" k3="1"/>
<feColorMatrix type="matrix" values="0 0 0 0 0.729412 0 0 0 0 0.678431 0 0 0 0 0.686275 0 0 0 1 0"/>
<feBlend mode="normal" in2="shape" result="effect1_innerShadow_11638_1992"/>
<feColorMatrix in="SourceAlpha" type="matrix" values="0 0 0 0 0 0 0 0 0 0 0 0 0 0 0 0 0 0 127 0" result="hardAlpha"/>
<feOffset dx="-0.25"/>
<feGaussianBlur stdDeviation="0.1875"/>
<feComposite in2="hardAlpha" operator="arithmetic" k2="-1" k3="1"/>
<feColorMatrix type="matrix" values="0 0 0 0 0.964706 0 0 0 0 0.964706 0 0 0 0 0.956863 0 0 0 1 0"/>
<feBlend mode="normal" in2="effect1_innerShadow_11638_1992" result="effect2_innerShadow_11638_1992"/>
</filter>
<radialGradient id="paint0_radial_11638_1992" cx="0" cy="0" r="1" gradientUnits="userSpaceOnUse" gradientTransform="translate(1.73519 3.25483) scale(3.40916 0.603159)">
<stop stop-color="#E3E1E1"/>
<stop offset="1" stop-color="#E3E1E1" stop-opacity="0"/>
</radialGradient>
<linearGradient id="paint1_linear_11638_1992" x1="12.351" y1="6.00141" x2="6.37262" y2="11.9798" gradientUnits="userSpaceOnUse">
<stop stop-color="#12724A"/>
<stop offset="1" stop-color="#116245"/>
</linearGradient>
<linearGradient id="paint2_linear_11638_1992" x1="12.5747" y1="5.3601" x2="11.9411" y2="5.99367" gradientUnits="userSpaceOnUse">
<stop stop-color="#1C8F60"/>
<stop offset="1" stop-color="#1C8F60" stop-opacity="0"/>
</linearGradient>
<linearGradient id="paint3_linear_11638_1992" x1="5.90301" y1="11.9723" x2="6.55885" y2="11.3165" gradientUnits="userSpaceOnUse">
<stop offset="0.557" stop-color="#195840"/>
<stop offset="1" stop-color="#195840" stop-opacity="0"/>
</linearGradient>
<radialGradient id="paint4_radial_11638_1992" cx="0" cy="0" r="1" gradientUnits="userSpaceOnUse" gradientTransform="translate(8.96041 8.85803) rotate(114.806) scale(1.79232 1.70059)">
<stop offset="0.307" stop-color="#0E593C"/>
<stop offset="1" stop-color="#0E593C" stop-opacity="0"/>
</radialGradient>
<radialGradient id="paint5_radial_11638_1992" cx="0" cy="0" r="1" gradientUnits="userSpaceOnUse" gradientTransform="translate(8.93276 9.40528) rotate(138.249) scale(2.21742 0.470203)">
<stop offset="0.396" stop-color="#0F4F35"/>
<stop offset="1" stop-color="#0F4F35" stop-opacity="0"/>
</radialGradient>
<radialGradient id="paint6_radial_11638_1992" cx="0" cy="0" r="1" gradientUnits="userSpaceOnUse" gradientTransform="translate(1.53041 7.30919) rotate(3.2593) scale(6.55567 8.59688)">
<stop stop-color="#31DE74"/>
<stop offset="1" stop-color="#20CF5E"/>
</radialGradient>
<linearGradient id="paint7_linear_11638_1992" x1="7.24065" y1="2.07671" x2="6.51003" y2="9.81433" gradientUnits="userSpaceOnUse">
<stop stop-color="#24A35B"/>
<stop offset="1" stop-color="#27A05A"/>
</linearGradient>
<linearGradient id="paint8_linear_11638_1992" x1="7.62819" y1="5.477" x2="8.05324" y2="5.05194" gradientUnits="userSpaceOnUse">
<stop offset="0.228" stop-color="#269553"/>
<stop offset="1" stop-color="#269553" stop-opacity="0"/>
</linearGradient>
<radialGradient id="paint9_radial_11638_1992" cx="0" cy="0" r="1" gradientUnits="userSpaceOnUse" gradientTransform="translate(8.03097 5.14908) rotate(-85.802) scale(1.62946 1.60161)">
<stop offset="0.587" stop-color="#249755" stop-opacity="0"/>
<stop offset="0.987" stop-color="#16793D"/>
</radialGradient>
<linearGradient id="paint10_linear_11638_1992" x1="5.22822" y1="4.05871" x2="9.35817" y2="8.18866" gradientUnits="userSpaceOnUse">
<stop stop-color="#FFD425"/>
<stop offset="1" stop-color="#FFAD24"/>
</linearGradient>
<linearGradient id="paint11_linear_11638_1992" x1="10.3048" y1="8.62856" x2="9.38786" y2="7.71162" gradientUnits="userSpaceOnUse">
<stop offset="0.894" stop-color="#CC8139"/>
<stop offset="1" stop-color="#CC8139" stop-opacity="0"/>
</linearGradient>
<linearGradient id="paint12_linear_11638_1992" x1="4.18743" y1="6.6472" x2="6.35" y2="8.80976" gradientUnits="userSpaceOnUse">
<stop stop-color="#EFEAEA"/>
<stop offset="1" stop-color="#EAE3E3"/>
</linearGradient>
</defs>
</svg>
