<svg width="24" height="24" viewBox="0 0 24 24" fill="none" xmlns="http://www.w3.org/2000/svg">
<path d="M9 13.1243C9 13.3468 8.93402 13.5643 8.8104 13.7493C8.68679 13.9343 8.51109 14.0785 8.30552 14.1637C8.09995 14.2488 7.87375 14.2711 7.65552 14.2277C7.43729 14.1843 7.23684 14.0771 7.0795 13.9198C6.92217 13.7625 6.81502 13.562 6.77162 13.3438C6.72821 13.1256 6.75049 12.8994 6.83564 12.6938C6.92078 12.4882 7.06498 12.3125 7.24998 12.1889C7.43499 12.0653 7.6525 11.9993 7.875 11.9993C8.17337 11.9993 8.45952 12.1178 8.6705 12.3288C8.88147 12.5398 9 12.8259 9 13.1243ZM16.125 11.9993C15.9025 11.9993 15.685 12.0653 15.5 12.1889C15.315 12.3125 15.1708 12.4882 15.0856 12.6938C15.0005 12.8994 14.9782 13.1256 15.0216 13.3438C15.065 13.562 15.1722 13.7625 15.3295 13.9198C15.4868 14.0771 15.6873 14.1843 15.9055 14.2277C16.1238 14.2711 16.35 14.2488 16.5555 14.1637C16.7611 14.0785 16.9368 13.9343 17.0604 13.7493C17.184 13.5643 17.25 13.3468 17.25 13.1243C17.25 12.8259 17.1315 12.5398 16.9205 12.3288C16.7095 12.1178 16.4234 11.9993 16.125 11.9993ZM21.75 4.49931V12.7493C21.75 17.7115 17.3766 21.7493 12 21.7493C6.62344 21.7493 2.25 17.7115 2.25 12.7493V4.49931C2.25014 4.20273 2.33819 3.91286 2.50302 3.66631C2.66785 3.41977 2.90207 3.22762 3.17607 3.11414C3.45007 3.00067 3.75156 2.97096 4.04244 3.02878C4.33332 3.08661 4.60054 3.22935 4.81031 3.43899C4.82344 3.45212 4.83469 3.46431 4.84594 3.47743L6.46875 5.34306C8.12807 4.30345 10.0466 3.75208 12.0047 3.75208C13.9628 3.75208 15.8813 4.30345 17.5406 5.34306L19.1541 3.47743C19.1653 3.46431 19.1766 3.45212 19.1897 3.43899C19.3995 3.22935 19.6667 3.08661 19.9576 3.02878C20.2484 2.97096 20.5499 3.00067 20.8239 3.11414C21.0979 3.22762 21.3322 3.41977 21.497 3.66631C21.6618 3.91286 21.7499 4.20273 21.75 4.49931ZM20.25 4.49931L18.2288 6.82431C18.1051 6.96735 17.932 7.05841 17.7441 7.07927C17.5562 7.10013 17.3673 7.04925 17.2153 6.93681C16.7577 6.59853 16.2667 6.30796 15.75 6.06962V8.24931C15.75 8.44822 15.671 8.63898 15.5303 8.77964C15.3897 8.92029 15.1989 8.99931 15 8.99931C14.8011 8.99931 14.6103 8.92029 14.4697 8.77964C14.329 8.63898 14.25 8.44822 14.25 8.24931V5.53524C13.758 5.40866 13.2562 5.32337 12.75 5.28024V8.24931C12.75 8.44822 12.671 8.63898 12.5303 8.77964C12.3897 8.92029 12.1989 8.99931 12 8.99931C11.8011 8.99931 11.6103 8.92029 11.4697 8.77964C11.329 8.63898 11.25 8.44822 11.25 8.24931V5.28024C10.7438 5.32337 10.242 5.40866 9.75 5.53524V8.24931C9.75 8.44822 9.67098 8.63898 9.53033 8.77964C9.38968 8.92029 9.19891 8.99931 9 8.99931C8.80109 8.99931 8.61032 8.92029 8.46967 8.77964C8.32902 8.63898 8.25 8.44822 8.25 8.24931V6.06962C7.73327 6.30796 7.24228 6.59853 6.78469 6.93681C6.63302 7.04958 6.44437 7.10093 6.25647 7.08059C6.06857 7.06026 5.89528 6.96973 5.77125 6.82712L3.75 4.49931V12.7493C3.75 16.6549 7.05094 19.8743 11.25 20.2184V18.3096L9.96937 17.029C9.89975 16.9593 9.84454 16.8766 9.80688 16.7856C9.76923 16.6946 9.74987 16.597 9.74991 16.4985C9.74996 16.4 9.7694 16.3025 9.80714 16.2115C9.84487 16.1205 9.90016 16.0378 9.96984 15.9682C10.1106 15.8276 10.3014 15.7487 10.5003 15.7488C10.5988 15.7488 10.6964 15.7682 10.7874 15.806C10.8783 15.8437 10.961 15.899 11.0306 15.9687L12 16.9381L12.9694 15.9687C13.039 15.899 13.1217 15.8437 13.2126 15.806C13.3036 15.7682 13.4012 15.7488 13.4997 15.7488C13.5982 15.7487 13.6957 15.7681 13.7867 15.8057C13.8778 15.8434 13.9605 15.8986 14.0302 15.9682C14.0998 16.0378 14.1551 16.1205 14.1929 16.2115C14.2306 16.3025 14.25 16.4 14.2501 16.4985C14.2501 16.597 14.2308 16.6946 14.1931 16.7856C14.1555 16.8766 14.1002 16.9593 14.0306 17.029L12.75 18.3096V20.2184C16.9491 19.8724 20.25 16.6559 20.25 12.7493V4.49931Z" fill="white"/>
</svg>
