<svg width="10" height="10" viewBox="0 0 10 10" fill="none" xmlns="http://www.w3.org/2000/svg">
<path d="M5 0C7.7615 0 10 2.2385 10 5C10 7.7615 7.7615 10 5 10C2.2385 10 0 7.7615 0 5C0 2.2385 2.2385 0 5 0ZM5 2C4.86739 2 4.74021 2.05268 4.64645 2.14645C4.55268 2.24021 4.5 2.36739 4.5 2.5V5C4.50003 5.1326 4.55273 5.25975 4.6465 5.3535L6.1465 6.8535C6.2408 6.94458 6.3671 6.99498 6.4982 6.99384C6.6293 6.9927 6.75471 6.94011 6.84741 6.84741C6.94011 6.75471 6.9927 6.6293 6.99384 6.4982C6.99498 6.3671 6.94458 6.2408 6.8535 6.1465L5.5 4.793V2.5C5.5 2.36739 5.44732 2.24021 5.35355 2.14645C5.25979 2.05268 5.13261 2 5 2Z" fill="white"/>
</svg>
