<svg width="31" height="30" viewBox="0 0 31 30" fill="none" xmlns="http://www.w3.org/2000/svg">
<path d="M2.5 6.953C2.5 5.63938 3.02183 4.37957 3.9507 3.4507C4.87957 2.52183 6.13938 2 7.453 2H23.547C24.1974 2 24.8415 2.12811 25.4424 2.37702C26.0434 2.62594 26.5894 2.99077 27.0493 3.4507C27.5092 3.91063 27.8741 4.45664 28.123 5.05757C28.3719 5.65849 28.5 6.30256 28.5 6.953V23.047C28.5 23.6974 28.3719 24.3415 28.123 24.9424C27.8741 25.5434 27.5092 26.0894 27.0493 26.5493C26.5894 27.0092 26.0434 27.3741 25.4424 27.623C24.8415 27.8719 24.1974 28 23.547 28H7.453C6.80256 28 6.15849 27.8719 5.55757 27.623C4.95664 27.3741 4.41063 27.0092 3.9507 26.5493C3.49077 26.0894 3.12594 25.5434 2.87702 24.9424C2.62811 24.3415 2.5 23.6974 2.5 23.047V6.953Z" stroke="white" stroke-width="2" stroke-linecap="round" stroke-linejoin="round"/>
<path d="M9.92871 14.9992H21.0716M15.5001 9.42773V20.5706" stroke="white" stroke-width="2" stroke-linecap="round" stroke-linejoin="round"/>
</svg>
