<svg width="14" height="14" viewBox="0 0 14 14" fill="none" xmlns="http://www.w3.org/2000/svg">
<g clip-path="url(#clip0_11638_1537)">
<path d="M8.80469 11.375C8.80469 12.3416 8.24004 13.125 7.27344 13.125H3.66406C2.69746 13.125 2.13281 12.3416 2.13281 11.375M9.1875 9.1875C9.67066 9.1875 10.0625 9.67723 10.0625 10.2812C10.0625 10.8853 9.67066 11.375 9.1875 11.375H1.75C1.26684 11.375 0.875 10.8853 0.875 10.2812C0.875 9.67723 1.26684 9.1875 1.75 9.1875" stroke="black" stroke-width="0.8" stroke-miterlimit="10" stroke-linecap="round"/>
<path d="M1.75 7.54688V7.54086C1.75 6.03695 2.98047 5.25 4.48438 5.25H6.45312C7.95703 5.25 9.1875 6.04297 9.1875 7.54688V7.54086M6.58984 3.0625L6.79328 4.81168M9.40625 9.1875H4.90301C4.84507 9.18753 4.78951 9.21054 4.74852 9.25148L4.01488 9.98512C4.00472 9.99529 3.99266 10.0034 3.97938 10.0089C3.96611 10.0144 3.95187 10.0172 3.9375 10.0172C3.92313 10.0172 3.90889 10.0144 3.89562 10.0089C3.88234 10.0034 3.87028 9.99529 3.86012 9.98512L3.12648 9.25148C3.08549 9.21054 3.02993 9.18753 2.97199 9.1875H1.53125C1.3572 9.1875 1.19028 9.11836 1.06721 8.99529C0.94414 8.87222 0.875 8.7053 0.875 8.53125C0.875 8.3572 0.94414 8.19028 1.06721 8.06721C1.19028 7.94414 1.3572 7.875 1.53125 7.875H9.40625C9.5803 7.875 9.74722 7.94414 9.87029 8.06721C9.99336 8.19028 10.0625 8.3572 10.0625 8.53125C10.0625 8.7053 9.99336 8.87222 9.87029 8.99529C9.74722 9.11836 9.5803 9.1875 9.40625 9.1875Z" stroke="black" stroke-width="0.8" stroke-miterlimit="10" stroke-linecap="round"/>
<path d="M7 13.125H10.8093C11.03 13.125 11.2426 13.0416 11.4044 12.8914C11.5662 12.7412 11.6653 12.5355 11.6818 12.3154L12.6602 3.0625" stroke="black" stroke-width="0.8" stroke-miterlimit="10" stroke-linecap="round"/>
<path d="M10.0625 3.0625L10.5 1.3125L11.7852 0.875" stroke="black" stroke-width="0.8" stroke-linecap="round" stroke-linejoin="round"/>
<path d="M6.125 3.0625H13.125" stroke="black" stroke-width="0.8" stroke-miterlimit="10" stroke-linecap="round"/>
</g>
<defs>
<clipPath id="clip0_11638_1537">
<rect width="14" height="14" fill="white"/>
</clipPath>
</defs>
</svg>
