<svg width="14" height="14" viewBox="0 0 14 14" fill="none" xmlns="http://www.w3.org/2000/svg">
<path fill-rule="evenodd" clip-rule="evenodd" d="M4.15403 3.08758L1.99161 5.25L2.85378 6.11217L3.31345 5.4985C3.66228 5.03358 4.40253 5.30075 4.37336 5.88175L4.14411 10.4708C4.14016 10.5498 4.15229 10.6287 4.17976 10.7028C4.20722 10.7769 4.24946 10.8446 4.3039 10.9019C4.35834 10.9592 4.42385 11.0048 4.49646 11.036C4.56907 11.0672 4.64726 11.0833 4.72628 11.0833H9.27395C9.35297 11.0833 9.43116 11.0672 9.50376 11.036C9.57637 11.0048 9.64188 10.9592 9.69633 10.9019C9.75077 10.8446 9.793 10.7769 9.82047 10.7028C9.84794 10.6287 9.86006 10.5498 9.85611 10.4708L9.62686 5.88175C9.5977 5.30075 10.3379 5.03358 10.6868 5.4985L11.1464 6.11217L12.0086 5.25L9.8462 3.08758C9.62511 2.86708 9.30428 2.91667 9.02136 2.91667C8.81653 3.27146 8.52189 3.56606 8.16708 3.77086C7.81226 3.97565 7.40979 4.08343 7.00011 4.08333C6.59044 4.08343 6.18796 3.97565 5.83315 3.77086C5.47834 3.56606 5.1837 3.27146 4.97886 2.91667C4.69536 2.91667 4.37453 2.86708 4.15403 3.08758ZM3.3292 2.26275C3.65731 1.93454 4.10236 1.7501 4.56645 1.75H5.30845C5.58378 1.75 5.81711 1.92325 5.90928 2.16417C5.99348 2.38528 6.14289 2.57558 6.33769 2.70985C6.5325 2.84412 6.76351 2.91602 7.00011 2.91602C7.23671 2.91602 7.46772 2.84412 7.66253 2.70985C7.85734 2.57558 8.00675 2.38528 8.09095 2.16417C8.18311 1.92325 8.41645 1.75 8.69178 1.75H9.43378C9.89767 1.75025 10.3425 1.93468 10.6704 2.26275L12.8334 4.42517C13.0522 4.64395 13.175 4.94064 13.175 5.25C13.175 5.55936 13.0522 5.85605 12.8334 6.07483L11.9713 6.937C11.6679 7.24033 11.2444 7.33892 10.8629 7.24383L11.0216 10.4125C11.0335 10.6494 10.9971 10.8862 10.9146 11.1085C10.8321 11.3309 10.7053 11.5342 10.5418 11.7061C10.3784 11.8779 10.1817 12.0147 9.96376 12.1082C9.74581 12.2018 9.51112 12.25 9.27395 12.25H4.72628C4.48911 12.25 4.25442 12.2018 4.03646 12.1082C3.81851 12.0147 3.62183 11.8779 3.45838 11.7061C3.29493 11.5342 3.16812 11.3309 3.08564 11.1085C3.00317 10.8862 2.96675 10.6494 2.97861 10.4125L3.13728 7.24383C2.94177 7.29278 2.73692 7.29024 2.54268 7.23647C2.34844 7.18269 2.17145 7.07952 2.02895 6.937L1.16678 6.07483C0.948063 5.85605 0.825195 5.55936 0.825195 5.25C0.825195 4.94064 0.948063 4.64395 1.16678 4.42517L3.3292 2.26275Z" fill="black"/>
</svg>
