<svg width="24" height="24" viewBox="0 0 24 24" fill="none" xmlns="http://www.w3.org/2000/svg">
<path d="M8.75 6.24998C8.75 5.38803 9.09241 4.56139 9.7019 3.9519C10.3114 3.34241 11.138 3 12 3C12.862 3 13.6886 3.34241 14.2981 3.9519C14.9076 4.56139 15.25 5.38803 15.25 6.24998C15.25 7.11193 14.9076 7.93857 14.2981 8.54806C13.6886 9.15755 12.862 9.49996 12 9.49996C11.138 9.49996 10.3114 9.15755 9.7019 8.54806C9.09241 7.93857 8.75 7.11193 8.75 6.24998ZM4.75 4.99999C4.02065 4.99999 3.32118 5.28972 2.80546 5.80544C2.28973 6.32116 2 7.02063 2 7.74997C2 8.47931 2.28973 9.17878 2.80546 9.6945C3.32118 10.2102 4.02065 10.5 4.75 10.5C5.47935 10.5 6.17882 10.2102 6.69454 9.6945C7.21027 9.17878 7.5 8.47931 7.5 7.74997C7.5 7.02063 7.21027 6.32116 6.69454 5.80544C6.17882 5.28972 5.47935 4.99999 4.75 4.99999ZM19.25 4.99999C18.5207 4.99999 17.8212 5.28972 17.3055 5.80544C16.7897 6.32116 16.5 7.02063 16.5 7.74997C16.5 8.47931 16.7897 9.17878 17.3055 9.6945C17.8212 10.2102 18.5207 10.5 19.25 10.5C19.9793 10.5 20.6788 10.2102 21.1945 9.6945C21.7103 9.17878 22 8.47931 22 7.74997C22 7.02063 21.7103 6.32116 21.1945 5.80544C20.6788 5.28972 19.9793 4.99999 19.25 4.99999ZM9.125 11C8.69402 11 8.2807 11.1712 7.97595 11.4759C7.67121 11.7806 7.5 12.194 7.5 12.6249V16.4999C7.5 17.6934 7.97411 18.838 8.81802 19.6819C9.66193 20.5258 10.8065 20.9999 12 20.9999C13.1935 20.9999 14.3381 20.5258 15.182 19.6819C16.0259 18.838 16.5 17.6934 16.5 16.4999V12.6249C16.5 12.194 16.3288 11.7806 16.024 11.4759C15.7193 11.1712 15.306 11 14.875 11H9.125ZM6.576 11.9949C6.52567 12.1969 6.50033 12.4069 6.5 12.6249V16.4999C6.49923 17.3205 6.68241 18.1307 7.03605 18.8711C7.38969 19.6116 7.9048 20.2633 8.5435 20.7784C8.46783 20.8034 8.39117 20.8261 8.3135 20.8464C7.74268 20.9994 7.14729 21.0386 6.56135 20.9615C5.97541 20.8844 5.41039 20.6927 4.89854 20.3973C4.3867 20.1019 3.93806 19.7085 3.57825 19.2397C3.21844 18.7709 2.9545 18.2357 2.8015 17.6649L2.057 14.8879C2.00181 14.6818 1.98776 14.4668 2.01566 14.2552C2.04356 14.0437 2.11285 13.8396 2.2196 13.6549C2.32634 13.4701 2.46843 13.3081 2.63777 13.1782C2.8071 13.0484 3.00036 12.9531 3.2065 12.8979L6.576 11.9949ZM15.456 20.7784C16.0948 20.2633 16.61 19.6116 16.9637 18.8712C17.3175 18.1308 17.5007 17.3205 17.5 16.4999V12.6249C17.4993 12.4069 17.474 12.1969 17.424 11.9949L20.793 12.8974C21.2092 13.009 21.5641 13.2813 21.7796 13.6545C21.9951 14.0277 22.0535 14.4712 21.942 14.8874L21.198 17.6644C21.0399 18.2548 20.7631 18.8067 20.3846 19.2866C20.0062 19.7665 19.5339 20.1643 18.9967 20.4557C18.4594 20.747 17.8685 20.9259 17.2598 20.9814C16.6512 21.0369 16.0371 20.9678 15.456 20.7784Z" fill="white"/>
</svg>
