<svg width="12" height="12" viewBox="0 0 12 12" fill="none" xmlns="http://www.w3.org/2000/svg">
<path d="M3.53897 10.623H8.41547C8.92783 10.623 9.23404 10.3418 9.23404 9.79945V9.66874C9.23918 8.28252 7.76275 7.15752 7.11475 6.54488C6.9339 6.3741 6.83854 6.21852 6.83854 5.99245C6.83854 5.76638 6.9339 5.61574 7.11497 5.44002C7.75783 4.8171 9.23425 3.7626 9.23425 2.3211V2.20067C9.23425 1.6581 8.92783 1.37695 8.41568 1.37695H3.53875C3.03647 1.37695 2.76025 1.6581 2.76025 2.15545V2.3211C2.76025 3.7626 4.23668 4.8171 4.88468 5.44002C5.06554 5.61574 5.1609 5.76638 5.1609 5.99245C5.1609 6.21852 5.06554 6.3741 4.88447 6.54488C4.23668 7.15774 2.76025 8.28274 2.76025 9.66874V9.84445C2.76025 10.3416 3.03647 10.623 3.53875 10.623M4.06097 9.9351C3.8199 9.9351 3.74468 9.66874 3.98061 9.49302L5.69833 8.21224C5.75361 8.16724 5.78361 8.13702 5.78361 8.06159V5.64595C5.78361 5.37467 5.72833 5.23902 5.53761 5.07831C5.25133 4.83724 4.70897 4.4556 4.46275 4.1091C4.36225 3.96852 4.37233 3.85302 4.4979 3.85302H7.49618C7.62175 3.85302 7.63183 3.96852 7.53133 4.1091C7.28533 4.4556 6.7479 4.83724 6.45668 5.07831C6.26597 5.23902 6.21047 5.37467 6.21047 5.64595V8.06138C6.21047 8.13681 6.24068 8.16681 6.29597 8.21202L8.01861 9.49281C8.25454 9.66852 8.17418 9.93467 7.93825 9.93467L4.06097 9.9351Z" fill="white"/>
</svg>
