<svg width="14" height="14" viewBox="0 0 14 14" fill="none" xmlns="http://www.w3.org/2000/svg">
<g clip-path="url(#clip0_11638_2188)">
<path fill-rule="evenodd" clip-rule="evenodd" d="M8.05526 0.939643C8.26526 0.81131 8.53359 0.88131 8.65609 1.08548C8.99443 1.65131 9.15776 2.90548 7.86276 3.98464C7.67609 4.13631 7.40193 4.11298 7.24443 3.92631C7.17122 3.83615 7.13631 3.72085 7.14722 3.60522C7.15813 3.48959 7.21398 3.38286 7.30276 3.30798C8.24776 2.52048 8.03193 1.75048 7.90359 1.54048C7.84539 1.44036 7.82868 1.32144 7.85702 1.20916C7.88536 1.09688 7.95652 1.00014 8.05526 0.939643ZM11.3919 3.37214C11.5611 3.20298 11.5611 2.92298 11.3919 2.75381C11.3095 2.67259 11.1985 2.62705 11.0828 2.62705C10.9671 2.62705 10.856 2.67259 10.7736 2.75381L9.02359 4.50381C8.85443 4.67298 8.85443 4.95298 9.02359 5.12214C9.19276 5.29131 9.47276 5.29131 9.64193 5.12214L11.3919 3.37214ZM7.52443 5.49548L8.65026 6.62131C9.19276 7.16964 9.64193 7.61298 9.92776 7.99798C10.2253 8.40048 10.4236 8.82631 10.3303 9.31631C10.2428 9.80631 9.90443 10.133 9.48443 10.4013C9.07026 10.6638 8.49859 10.9205 7.79276 11.2296L5.79193 12.1221C4.60776 12.6471 3.66859 13.0613 2.95693 13.2655C2.26276 13.4696 1.58026 13.528 1.10193 13.0438C0.617761 12.5655 0.676094 11.883 0.880261 11.1888C1.08443 10.4771 1.49859 9.53798 2.02359 8.35381L2.89859 6.38798L2.91609 6.35298C3.22526 5.64714 3.48193 5.07548 3.74443 4.66131C4.01276 4.24131 4.33943 3.90298 4.82943 3.81548C5.31943 3.72214 5.74526 3.92048 6.14776 4.21798C6.53276 4.50381 6.97609 4.95298 7.52443 5.49548ZM5.62276 4.91798C5.30193 4.67881 5.12693 4.64964 4.98693 4.67298C4.84693 4.70214 4.69526 4.78964 4.47943 5.13381C4.35109 5.33798 4.21693 5.60048 4.06526 5.93298C4.07693 5.93881 4.08859 5.95048 4.10026 5.96214L8.18359 10.0455C8.18359 10.0455 8.20693 10.0688 8.21276 10.0805C8.54526 9.92881 8.80776 9.79464 9.01193 9.66631C9.35609 9.45048 9.44359 9.29881 9.47276 9.15881C9.49609 9.01881 9.46693 8.84381 9.22776 8.52298C8.98276 8.19048 8.58026 7.79381 8.00276 7.21631L6.92943 6.14298C6.35193 5.56548 5.95526 5.16298 5.62276 4.91798ZM2.84026 8.67464L3.68026 6.77881L7.36693 10.4655L5.47109 11.3055L5.36026 11.3521C5.341 11.2986 5.30896 11.2505 5.26693 11.2121L2.93359 8.87881C2.89521 8.83678 2.84716 8.80474 2.79359 8.78548L2.84026 8.67464ZM2.42609 9.60798L4.53776 11.7196C3.77943 12.0521 3.18443 12.2913 2.71776 12.4255C2.04693 12.618 1.82526 12.5363 1.72026 12.4255C1.60943 12.3205 1.52776 12.0988 1.72026 11.428C1.85443 10.9613 2.09359 10.3663 2.42609 9.60798ZM13.0603 5.48964C12.4944 5.15131 11.2403 4.98798 10.1611 6.28298C10.0094 6.46964 10.0328 6.74381 10.2194 6.90131C10.4061 7.05298 10.6803 7.02964 10.8378 6.84298C11.6253 5.89798 12.3953 6.11381 12.6053 6.24214C12.8153 6.36464 13.0836 6.29464 13.2061 6.09048C13.3344 5.88048 13.2644 5.61214 13.0603 5.48964ZM10.4994 0.875477C10.7386 0.875477 10.9369 1.07381 10.9369 1.31298V1.32464C10.9369 1.56381 10.7386 1.76214 10.4994 1.76214C10.2603 1.76214 10.0619 1.56381 10.0619 1.32464V1.31298C10.0619 1.07381 10.2603 0.875477 10.4994 0.875477ZM13.2703 3.64631C13.2703 3.40714 13.0719 3.20881 12.8328 3.20881C12.5936 3.20881 12.3953 3.40714 12.3953 3.64631V3.65798C12.3953 3.89714 12.5936 4.09548 12.8328 4.09548C13.0719 4.09548 13.2703 3.89714 13.2703 3.65798V3.64631ZM12.2494 7.29214C12.4886 7.29214 12.6869 7.49048 12.6869 7.72964V7.74131C12.6869 7.98048 12.4886 8.17881 12.2494 8.17881C12.0103 8.17881 11.8119 7.98048 11.8119 7.74131V7.72964C11.8119 7.49048 12.0103 7.29214 12.2494 7.29214ZM6.85359 1.89631C6.85359 1.65714 6.65526 1.45881 6.41609 1.45881C6.17693 1.45881 5.97859 1.65714 5.97859 1.89631V1.90798C5.97859 2.14714 6.17693 2.34548 6.41609 2.34548C6.65526 2.34548 6.85359 2.14714 6.85359 1.90798V1.89631Z" fill="black"/>
</g>
<defs>
<clipPath id="clip0_11638_2188">
<rect width="14" height="14" fill="white"/>
</clipPath>
</defs>
</svg>
