<svg width="18" height="18" viewBox="0 0 18 18" fill="none" xmlns="http://www.w3.org/2000/svg">
<path d="M15.042 15.0431L13.8009 15.3757L13.0683 12.6413C13.6478 12.3511 14.1095 11.8699 14.3755 11.2789C14.6415 10.6879 14.6956 10.0233 14.5287 9.39705C13.6427 6.09236 11.802 3.19408 11.7239 3.07244C11.6604 2.97317 11.5673 2.89635 11.4578 2.85283C11.3483 2.8093 11.2279 2.80127 11.1136 2.82986L9.57656 3.21447C9.57656 2.63439 9.56391 2.27017 9.5618 2.22447C9.55619 2.10363 9.51178 1.98782 9.43515 1.89422C9.35852 1.80062 9.25376 1.73421 9.13641 1.70486L6.88641 1.14236C6.77209 1.11377 6.65168 1.1218 6.54217 1.16533C6.43267 1.20885 6.33959 1.28567 6.27609 1.38494C6.19805 1.50658 4.35727 4.40345 3.47133 7.71306C3.30436 8.33929 3.35845 9.00394 3.62449 9.59492C3.89052 10.1859 4.35222 10.6671 4.93172 10.9573L4.19906 13.6882L2.95805 13.3556C2.8139 13.317 2.66032 13.3373 2.53109 13.4119C2.40187 13.4865 2.30759 13.6095 2.26898 13.7536C2.23038 13.8978 2.25063 14.0513 2.32526 14.1806C2.39989 14.3098 2.5228 14.4041 2.66695 14.4427L6.04195 15.3469C6.08946 15.3594 6.13837 15.3658 6.1875 15.3659C6.32408 15.366 6.45606 15.3165 6.5588 15.2265C6.66153 15.1365 6.72802 15.0122 6.74584 14.8768C6.76366 14.7413 6.7316 14.6041 6.65564 14.4906C6.57968 14.377 6.46502 14.295 6.33305 14.2599L5.28539 13.9786L6.01805 11.2442C6.075 11.2477 6.13125 11.2498 6.1875 11.2498C6.74554 11.2482 7.29059 11.0812 7.75367 10.7698C8.21676 10.4584 8.57709 10.0166 8.78906 9.50041C8.87203 9.9483 8.97187 10.4018 9.09211 10.8518C9.25307 11.4503 9.60682 11.979 10.0986 12.3561C10.5904 12.7333 11.1928 12.9378 11.8125 12.938C11.8687 12.938 11.925 12.938 11.982 12.9324L12.7146 15.6668L11.667 15.9481C11.5356 15.9838 11.4216 16.0659 11.3462 16.1792C11.2708 16.2925 11.239 16.4294 11.2568 16.5643C11.2745 16.6993 11.3407 16.8232 11.4428 16.9131C11.545 17.0031 11.6764 17.0529 11.8125 17.0534C11.8616 17.0533 11.9105 17.0469 11.958 17.0344L15.333 16.1302C15.4772 16.0916 15.6001 15.9973 15.6747 15.8681C15.7494 15.7388 15.7696 15.5853 15.731 15.4411C15.6924 15.297 15.5981 15.174 15.4689 15.0994C15.3397 15.0248 15.1861 15.0045 15.042 15.0431ZM10.9842 4.02166C11.1797 4.35212 11.4926 4.90337 11.842 5.60087L9.5625 6.17181C9.53297 5.46869 9.53578 4.88861 9.54492 4.49908C9.54492 4.4597 9.54844 4.42033 9.55055 4.38095L10.9842 4.02166ZM7.01578 2.33416L8.44805 2.69205C8.45227 2.99298 8.44805 3.44228 8.43328 3.99072C8.42906 4.0758 8.42203 4.21501 8.41711 4.40134C8.41711 4.47166 8.41008 4.54197 8.40586 4.61228L6.09539 4.03853C6.46875 3.28197 6.80906 2.68361 7.01578 2.33416ZM7.81664 8.87955C7.69572 9.30669 7.41135 9.66897 7.02516 9.8879C6.63898 10.1068 6.18207 10.1648 5.75346 10.0492C5.32486 9.93354 4.95907 9.65369 4.73537 9.27024C4.51167 8.8868 4.44807 8.43065 4.55836 8.00064C4.83526 7.00054 5.18784 6.02295 5.61305 5.07634L8.3257 5.75416C8.23104 6.80679 8.06092 7.85128 7.81664 8.87955ZM10.182 10.5614C9.90649 9.49627 9.72277 8.40949 9.63281 7.31298L12.3335 6.63798C12.7823 7.62423 13.1526 8.64435 13.4409 9.68884C13.502 9.90404 13.5196 10.1292 13.4929 10.3513C13.4661 10.5734 13.3954 10.7879 13.285 10.9824C13.1746 11.177 13.0266 11.3476 12.8496 11.4844C12.6726 11.6212 12.4702 11.7215 12.2542 11.7794C12.0381 11.8373 11.8127 11.8516 11.591 11.8216C11.3694 11.7916 11.1559 11.7178 10.963 11.6045C10.7701 11.4913 10.6017 11.3408 10.4675 11.1618C10.3333 10.9829 10.236 10.779 10.1813 10.5621L10.182 10.5614ZM12.9945 3.0647C12.9613 2.9986 12.9416 2.92662 12.9363 2.85288C12.9311 2.77914 12.9404 2.70508 12.9638 2.63494C12.9872 2.56481 13.0241 2.49997 13.0726 2.44414C13.121 2.3883 13.18 2.34257 13.2462 2.30955L14.3712 1.74705C14.4373 1.71399 14.5093 1.69428 14.583 1.68904C14.6567 1.6838 14.7308 1.69313 14.8009 1.71651C14.871 1.73988 14.9358 1.77684 14.9917 1.82527C15.0475 1.8737 15.0933 1.93265 15.1263 1.99876C15.1594 2.06488 15.1791 2.13685 15.1843 2.21058C15.1896 2.28431 15.1802 2.35835 15.1569 2.42848C15.1335 2.4986 15.0965 2.56343 15.0481 2.61927C14.9997 2.67511 14.9407 2.72086 14.8746 2.75392L13.7496 3.31642C13.6835 3.34953 13.6115 3.36927 13.5378 3.37454C13.464 3.3798 13.39 3.37048 13.3199 3.3471C13.2497 3.32372 13.1849 3.28675 13.129 3.23829C13.0732 3.18984 13.0275 3.13085 12.9945 3.0647ZM16.3125 5.06298C16.3125 5.21217 16.2532 5.35524 16.1477 5.46073C16.0423 5.56622 15.8992 5.62548 15.75 5.62548H14.625C14.4758 5.62548 14.3327 5.56622 14.2273 5.46073C14.1218 5.35524 14.0625 5.21217 14.0625 5.06298C14.0625 4.9138 14.1218 4.77073 14.2273 4.66524C14.3327 4.55975 14.4758 4.50048 14.625 4.50048H15.75C15.8992 4.50048 16.0423 4.55975 16.1477 4.66524C16.2532 4.77073 16.3125 4.9138 16.3125 5.06298ZM2.30906 1.43626C2.34208 1.37012 2.38782 1.31113 2.44365 1.26268C2.49949 1.21422 2.56433 1.17724 2.63446 1.15387C2.7046 1.13049 2.77865 1.12116 2.85239 1.12643C2.92614 1.13169 2.99812 1.15144 3.06422 1.18455L4.18922 1.74705C4.25533 1.7801 4.31429 1.82586 4.36271 1.8817C4.41114 1.93754 4.4481 2.00237 4.47148 2.07249C4.49485 2.14261 4.50418 2.21665 4.49894 2.29038C4.4937 2.36411 4.47399 2.43609 4.44094 2.5022C4.40788 2.56831 4.36213 2.62727 4.30629 2.6757C4.25045 2.72413 4.18561 2.76109 4.11549 2.78446C3.97387 2.83167 3.8193 2.82068 3.68578 2.75392L2.56078 2.19142C2.49464 2.1584 2.43565 2.11267 2.38719 2.05683C2.33874 2.001 2.30176 1.93616 2.27838 1.86602C2.255 1.79589 2.24568 1.72183 2.25094 1.64809C2.25621 1.57435 2.27596 1.50237 2.30906 1.43626ZM2.8125 5.06298H1.6875C1.53832 5.06298 1.39524 5.00372 1.28975 4.89823C1.18426 4.79274 1.125 4.64967 1.125 4.50048C1.125 4.3513 1.18426 4.20823 1.28975 4.10274C1.39524 3.99725 1.53832 3.93798 1.6875 3.93798H2.8125C2.96168 3.93798 3.10476 3.99725 3.21025 4.10274C3.31574 4.20823 3.375 4.3513 3.375 4.50048C3.375 4.64967 3.31574 4.79274 3.21025 4.89823C3.10476 5.00372 2.96168 5.06298 2.8125 5.06298Z" fill="white"/>
</svg>
