<svg width="12" height="12" viewBox="0 0 12 12" fill="none" xmlns="http://www.w3.org/2000/svg">
<path d="M6 5.7C5.62112 5.7 5.25776 5.54196 4.98985 5.26066C4.72194 4.97936 4.57143 4.59782 4.57143 4.2C4.57143 3.80218 4.72194 3.42064 4.98985 3.13934C5.25776 2.85804 5.62112 2.7 6 2.7C6.37888 2.7 6.74224 2.85804 7.01015 3.13934C7.27806 3.42064 7.42857 3.80218 7.42857 4.2C7.42857 4.39698 7.39162 4.59204 7.31983 4.77403C7.24804 4.95601 7.14281 5.12137 7.01015 5.26066C6.8775 5.39995 6.72001 5.51044 6.54669 5.58582C6.37337 5.6612 6.1876 5.7 6 5.7ZM6 0C4.93913 0 3.92172 0.442499 3.17157 1.23015C2.42143 2.0178 2 3.08609 2 4.2C2 7.35 6 12 6 12C6 12 10 7.35 10 4.2C10 3.08609 9.57857 2.0178 8.82843 1.23015C8.07828 0.442499 7.06087 0 6 0Z" fill="white"/>
</svg>
