<svg width="200" height="200" viewBox="0 0 200 200" fill="none" xmlns="http://www.w3.org/2000/svg">
<rect x="2.5" y="2.5" width="195" height="195" rx="97.5" fill="#F3F4F6"/>
<rect x="2.5" y="2.5" width="195" height="195" rx="97.5" stroke="url(#paint0_linear_11395_68480)" stroke-width="5"/>
<path d="M99.5 50C92.8696 50 86.5107 52.6339 81.8223 57.3223C77.1339 62.0107 74.5 68.3696 74.5 75C74.5 81.6304 77.1339 87.9893 81.8223 92.6777C86.5107 97.3661 92.8696 100 99.5 100C106.13 100 112.489 97.3661 117.178 92.6777C121.866 87.9893 124.5 81.6304 124.5 75C124.5 68.3696 121.866 62.0107 117.178 57.3223C112.489 52.6339 106.13 50 99.5 50ZM68.3062 106.25C66.66 106.243 65.0285 106.56 63.5054 107.185C61.9824 107.81 60.5977 108.73 59.431 109.891C58.2643 111.053 57.3386 112.433 56.7069 113.953C56.0752 115.474 55.75 117.104 55.75 118.75C55.75 129.319 60.9563 137.288 69.0938 142.481C77.1062 147.588 87.9062 150 99.5 150C111.094 150 121.894 147.588 129.906 142.481C138.044 137.294 143.25 129.313 143.25 118.75C143.25 115.435 141.933 112.255 139.589 109.911C137.245 107.567 134.065 106.25 130.75 106.25H68.3062Z" fill="black" fill-opacity="0.6"/>
<defs>
<linearGradient id="paint0_linear_11395_68480" x1="0" y1="0" x2="25.0543" y2="219.93" gradientUnits="userSpaceOnUse">
<stop offset="0.317308" stop-color="#080B32"/>
<stop offset="0.466346" stop-color="#0E1241"/>
<stop offset="0.600962" stop-color="#291C56"/>
<stop offset="0.75" stop-color="#392465"/>
<stop offset="1" stop-color="#51286A"/>
</linearGradient>
</defs>
</svg>
