<svg width="10" height="10" viewBox="0 0 10 10" fill="none" xmlns="http://www.w3.org/2000/svg">
<path d="M2.50008 9.16602C2.27091 9.16602 2.0748 9.08449 1.91175 8.92143C1.74869 8.75838 1.66703 8.56213 1.66675 8.33268V4.16602C1.66675 3.93685 1.74841 3.74074 1.91175 3.57768C2.07508 3.41463 2.27119 3.33296 2.50008 3.33268H2.91675V2.49935C2.91675 1.92296 3.11994 1.43171 3.52633 1.0256C3.93272 0.619488 4.42397 0.416294 5.00008 0.416016C5.57619 0.415738 6.06758 0.618933 6.47425 1.0256C6.88091 1.43227 7.08397 1.92352 7.08341 2.49935V3.33268H7.50008C7.72925 3.33268 7.9255 3.41435 8.08883 3.57768C8.25216 3.74102 8.33369 3.93713 8.33341 4.16602V8.33268C8.33341 8.56185 8.25189 8.7581 8.08883 8.92143C7.92578 9.08477 7.72953 9.16629 7.50008 9.16602H2.50008ZM5.00008 7.08268C5.22925 7.08268 5.4255 7.00116 5.58883 6.8381C5.75216 6.67504 5.83369 6.47879 5.83341 6.24935C5.83314 6.01991 5.75161 5.82379 5.58883 5.66102C5.42605 5.49824 5.2298 5.41657 5.00008 5.41602C4.77036 5.41546 4.57425 5.49713 4.41175 5.66102C4.24925 5.82491 4.16758 6.02102 4.16675 6.24935C4.16591 6.47768 4.24758 6.67393 4.41175 6.8381C4.57591 7.00227 4.77203 7.08379 5.00008 7.08268ZM3.75008 3.33268H6.25008V2.49935C6.25008 2.15213 6.12855 1.85699 5.8855 1.61393C5.64244 1.37088 5.3473 1.24935 5.00008 1.24935C4.65286 1.24935 4.35772 1.37088 4.11466 1.61393C3.87161 1.85699 3.75008 2.15213 3.75008 2.49935V3.33268Z" fill="white"/>
</svg>
