<svg width="10" height="10" viewBox="0 0 10 10" fill="none" xmlns="http://www.w3.org/2000/svg">
<g clip-path="url(#clip0_11638_2321)">
<path d="M4.99976 0.607422C7.42565 0.607422 9.39316 2.57414 9.39331 5C9.39331 7.42599 7.42575 9.39355 4.99976 9.39355C2.57389 9.3934 0.607178 7.4259 0.607178 5C0.607328 2.57423 2.57399 0.607573 4.99976 0.607422Z" stroke="white" stroke-width="0.5" stroke-miterlimit="10"/>
<path d="M9.23157 3.12845C8.87308 3.13068 8.90835 3.79206 8.4617 3.48001C8.29585 3.36439 8.19384 3.19631 7.98558 3.14519C7.80366 3.10055 7.61728 3.14698 7.43759 3.178C7.23335 3.21327 6.99116 3.22912 6.83625 3.38381C6.68648 3.53269 6.60724 3.73247 6.44786 3.88224C6.1396 4.17242 6.00947 4.48916 6.20902 4.89943C6.40099 5.29385 6.80255 5.50791 7.23581 5.47979C7.66148 5.45144 8.10366 5.20456 8.09139 5.82309C8.08692 6.04184 8.13268 6.19363 8.19987 6.39698C8.26215 6.58448 8.25791 6.76617 8.27219 6.9597C8.29853 7.32131 8.36505 7.72666 8.54451 8.04608L8.87933 7.57376C8.92063 7.51528 9.00701 7.43336 9.02755 7.36439C9.06393 7.24229 8.99228 7.03247 8.98402 6.89564C8.97576 6.75881 8.97978 6.62019 8.9588 6.48336C8.92933 6.29162 8.81594 6.11193 8.80032 5.92242C8.77152 5.56952 8.83603 5.28782 8.56416 4.99273C8.30166 4.70814 7.91683 4.63983 7.5492 4.69765C7.36393 4.72666 6.61817 4.84586 6.9175 4.42242C6.97666 4.33916 7.08 4.27086 7.14652 4.19162C7.20433 4.12265 7.25456 3.99586 7.32241 3.94206C7.39027 3.88827 7.70188 3.82644 7.79116 3.8539C7.88045 3.88135 7.97353 4.01014 8.05099 4.06729C8.1941 4.17507 8.3611 4.24674 8.53782 4.27622C8.84273 4.32086 9.48023 4.14363 9.47532 3.75256C9.47442 3.56506 9.30032 3.3039 9.23157 3.12845ZM5.7021 6.3463C5.58313 5.84541 4.90255 5.678 4.53558 5.40635C4.32465 5.2501 4.13692 5.00881 3.85991 4.98916C3.73224 4.98001 3.62532 5.00769 3.49875 4.97488C3.38268 4.94497 3.29161 4.88247 3.16795 4.89876C2.93692 4.92912 2.79116 5.17599 2.54295 5.14251C2.30746 5.11081 2.06483 4.83537 2.01125 4.61104C1.9425 4.32264 2.17063 4.22912 2.41505 4.20345C2.51706 4.19273 2.63157 4.18113 2.72956 4.2184C2.85858 4.2664 2.91951 4.39273 3.03536 4.45657C3.25255 4.57555 3.29652 4.38537 3.26326 4.19251C3.21349 3.90367 3.15545 3.78581 3.41304 3.58715C3.59161 3.4501 3.74429 3.35099 3.71572 3.10479C3.69875 2.96015 3.61951 2.89474 3.6934 2.75077C3.74942 2.64117 3.90322 2.54229 4.00344 2.47689C4.26215 2.30814 5.1117 2.32064 4.7646 1.84831C4.66259 1.7097 4.47442 1.46193 4.29585 1.428C4.07264 1.38581 3.97353 1.63492 3.81795 1.74474C3.65724 1.85836 3.34429 1.98738 3.18335 1.81171C2.96683 1.57532 3.32688 1.49765 3.40657 1.33269C3.48625 1.16773 3.22197 0.855904 3.08045 0.776886L2.41505 1.52309C2.39593 1.64806 2.40259 1.77562 2.4346 1.89792C2.46662 2.02022 2.52332 2.13468 2.60121 2.23425C2.73358 2.40456 2.94429 2.45925 2.95389 2.69184C2.96326 2.91506 2.92844 3.02934 2.78246 3.18626C2.71929 3.25323 2.67465 3.34831 2.61036 3.41104C2.53157 3.4876 2.56081 3.46416 2.43782 3.48515C2.20657 3.52421 2.00969 3.58448 1.78625 3.64608C1.41393 3.74898 1.37956 3.14073 1.20991 2.90211L0.651879 3.35278C0.645852 3.42666 0.743397 3.5626 0.769959 3.64296C0.922414 4.10211 1.23 4.45724 1.42866 4.89653C1.63782 5.36171 2.19942 5.23269 2.44741 5.64028C2.6675 6.00189 2.43246 6.4597 2.59719 6.83827C2.71683 7.11305 2.99898 7.17309 3.19362 7.37398C3.3925 7.57689 3.38826 7.85456 3.41862 8.11863C3.45284 8.42922 3.5084 8.73709 3.58491 9.04006C3.61192 9.14474 3.6367 9.28314 3.70835 9.36952C3.75746 9.42889 3.92599 9.48001 3.85791 9.49965C3.95299 9.51528 4.12241 9.60412 4.20166 9.53894C4.30612 9.45322 4.27822 9.18939 4.2963 9.07019C4.35054 8.71528 4.52822 8.36818 4.76795 8.10256C5.00478 7.8405 5.32933 7.66305 5.52933 7.36595C5.7242 7.07622 5.78291 6.68537 5.7021 6.3463ZM4.95679 6.9338C4.82286 7.17287 4.52465 7.33291 4.33291 7.52287C4.2809 7.57443 4.17018 7.753 4.105 7.71439C4.05835 7.68671 4.0425 7.45501 4.02532 7.40189C3.93665 7.13437 3.76737 6.90085 3.54072 6.73336C3.47085 6.68046 3.29764 6.61171 3.25768 6.53916C3.21304 6.46037 3.25322 6.27443 3.25478 6.18872C3.25724 6.06372 3.20032 5.8559 3.23112 5.74229C3.26683 5.61126 3.19808 5.69028 3.31527 5.66439C3.3771 5.65055 3.63246 5.69541 3.70947 5.71148C3.83179 5.73693 3.8992 5.81305 3.99563 5.89006C4.2492 6.0934 4.52844 6.25077 4.81259 6.40657C5.03268 6.52845 5.09741 6.68269 4.95679 6.9338ZM3.40322 0.783583C3.50902 0.886931 3.60857 1.00925 3.76639 1.01952C3.91572 1.02957 4.05657 0.948761 4.18692 1.05032C4.33157 1.16193 4.43581 1.30323 4.62777 1.33805C4.81349 1.37175 5.01014 1.26327 5.05612 1.07331C5.10076 0.892288 5.00456 0.695413 4.99875 0.513717C4.99875 0.488494 5.01237 0.37644 4.99496 0.357467C4.98201 0.343181 4.87398 0.359252 4.85746 0.359699C4.73648 0.36327 4.61579 0.371604 4.49541 0.384699C4.05653 0.432202 3.62672 0.542323 3.21907 0.711708C3.27331 0.749208 3.34139 0.764163 3.40322 0.783583ZM7.24116 2.0376C7.43067 2.0376 7.62308 1.95278 7.56192 1.73358C7.51058 1.54988 7.42308 1.35055 7.21014 1.44965C7.07465 1.5126 6.88268 1.67287 6.86683 1.8318C6.84875 2.01215 7.11482 2.0376 7.24116 2.0376ZM7.08982 2.99675C7.28335 3.1126 7.57041 3.05814 7.71639 2.89273C7.83045 2.76327 7.89764 2.53849 8.10277 2.53872C8.19308 2.53853 8.27984 2.57389 8.34429 2.63715C8.42911 2.72488 8.41237 2.80724 8.43045 2.91706C8.47085 3.16372 8.73536 2.93113 8.80433 2.83559C8.84898 2.77331 8.90947 2.6809 8.88916 2.59988C8.87041 2.52421 8.78201 2.44363 8.74273 2.37421C8.62799 2.17332 8.53358 1.93961 8.3617 1.77733C8.1963 1.62108 7.99295 1.63916 7.83603 1.80144C7.70746 1.93537 7.55813 2.0414 7.47018 2.20434C7.40813 2.31885 7.33826 2.37354 7.21259 2.40323C7.1434 2.41952 7.06438 2.42555 7.00634 2.47198C6.84474 2.59921 6.9367 2.90479 7.08982 2.99675Z" fill="white"/>
</g>
<defs>
<clipPath id="clip0_11638_2321">
<rect width="10" height="10" fill="white"/>
</clipPath>
</defs>
</svg>
