<svg width="24" height="24" viewBox="0 0 24 24" fill="none" xmlns="http://www.w3.org/2000/svg">
<path d="M21.9886 5.28979C22.0038 5.1021 22.0038 4.91347 21.9886 4.72578C21.8798 3.95556 21.4916 3.25225 20.8978 2.7498C20.304 2.24734 19.5461 1.98085 18.7685 2.00107H5.25221C4.93772 2.00859 4.62802 2.05235 4.3231 2.13233C3.64043 2.31957 3.04045 2.73069 2.61942 3.29973C2.19839 3.86878 1.98072 4.56275 2.00134 5.27031V18.6785C1.99792 18.954 2.02493 19.2264 2.08236 19.4958C2.24058 20.2242 2.64974 20.8738 3.23833 21.3312C3.82693 21.7886 4.55753 22.0246 5.30246 21.998H18.6967C19.0951 22.0014 19.4913 21.9366 19.8678 21.8062C20.4985 21.5951 21.0448 21.1871 21.4263 20.6424C21.8079 20.0977 22.0046 19.4449 21.9876 18.78C21.9978 14.2494 21.9886 9.77012 21.9886 5.28979ZM18.5767 16.4819C18.2547 16.6665 18.027 16.728 17.6773 16.8521C17.6049 16.8704 17.5379 16.9055 17.4817 16.9547C17.4256 17.0039 17.3819 17.0658 17.3543 17.1351C17.2792 17.344 17.1426 17.5252 16.9625 17.6548C16.7823 17.7845 16.5671 17.8564 16.3452 17.8612L15.5073 17.9125C15.0495 17.977 14.6136 18.1496 14.2357 18.416C13.6846 18.7796 13.0509 18.9988 12.3928 19.0535C11.7348 19.1082 11.0736 18.9965 10.47 18.7287C10.2378 18.6382 10.0174 18.5197 9.81369 18.376C9.29993 18.0347 8.69413 17.8587 8.0775 17.8714C7.89091 17.8746 7.70453 17.8574 7.52167 17.8202C7.34137 17.7913 7.17219 17.7143 7.03196 17.5974C6.89173 17.4804 6.78563 17.3278 6.72485 17.1556C6.70052 17.0759 6.65459 17.0045 6.59213 16.9493C6.52968 16.8941 6.45316 16.8572 6.37105 16.8429C5.93708 16.7451 5.53448 16.5403 5.19991 16.2471C5.0746 16.1512 4.97675 16.024 4.91621 15.8783C4.85567 15.7326 4.83458 15.5735 4.85506 15.417C4.87554 15.2606 4.93686 15.1123 5.03287 14.9871C5.12887 14.8618 5.25617 14.7641 5.40194 14.7037C5.766 14.4914 6.12903 14.2894 6.47257 14.0474C6.89303 13.7428 7.23863 13.346 7.48168 12.8876C7.63345 12.5851 7.6232 12.5543 7.35041 12.3728C7.06221 12.1886 6.7858 11.9865 6.52282 11.7678C6.33461 11.6128 6.19807 11.4042 6.13139 11.1697C6.0647 10.9352 6.07103 10.686 6.14954 10.4551C6.23731 10.1488 6.43867 9.88753 6.71253 9.72459C6.98639 9.56166 7.3121 9.50935 7.6232 9.57836H7.81497C7.72589 8.91379 7.79666 8.23757 8.02139 7.60584C8.24612 6.97411 8.61833 6.40511 9.10712 5.9461C9.91356 5.26797 10.9406 4.90896 11.9939 4.93703C12.6024 4.91721 13.2081 5.02754 13.7705 5.26062C14.3329 5.49371 14.839 5.84419 15.2551 6.28861C15.643 6.74865 15.9326 7.2832 16.1061 7.85937C16.2797 8.43554 16.3335 9.04113 16.2642 9.63886C16.4932 9.61835 16.7222 9.61835 16.9513 9.63886C17.1904 9.66508 17.4156 9.76443 17.5962 9.92336C17.7768 10.0823 17.904 10.2931 17.9604 10.5269C18.0269 10.7548 18.0261 10.9971 17.958 11.2245C17.89 11.452 17.7576 11.6549 17.5768 11.8088C17.3001 12.0406 17.0101 12.256 16.7082 12.4538C16.4764 12.6046 16.4662 12.6353 16.5872 12.8876C16.96 13.5726 17.525 14.1336 18.2126 14.5017L18.6567 14.7437C18.8161 14.8163 18.9518 14.9326 19.048 15.079C19.1441 15.2255 19.1969 15.3961 19.2001 15.5713C19.2033 15.7465 19.1569 15.919 19.0661 16.0689C18.9754 16.2188 18.8441 16.3399 18.6875 16.4183L18.5767 16.4819Z" fill="white"/>
<path d="M17.8322 15.3153C17.8322 15.3833 17.7342 15.4823 17.6552 15.5113C17.3402 15.6393 17.0252 15.7673 16.6712 15.8663C16.545 15.8844 16.4292 15.9467 16.3444 16.0421C16.2597 16.1374 16.2114 16.2597 16.2082 16.3873C16.2082 16.4277 16.1998 16.4677 16.1837 16.5048C16.1676 16.5419 16.1441 16.5753 16.1146 16.6029C16.0851 16.6306 16.0502 16.6519 16.0121 16.6655C15.9741 16.6792 15.9336 16.6849 15.8932 16.6823L14.9092 16.7513C14.4062 16.8353 13.9292 17.0303 13.5112 17.3213C13.0249 17.6391 12.4542 17.8035 11.8733 17.7931C11.2924 17.7828 10.728 17.5982 10.2532 17.2633C9.66503 16.8896 8.98104 16.6948 8.28424 16.7023H8.23424C7.85124 16.7023 7.80224 16.6423 7.74324 16.2693C7.73841 16.1944 7.71152 16.1226 7.66596 16.063C7.6204 16.0034 7.55822 15.9586 7.48724 15.9343C7.31924 15.8663 7.15224 15.8263 6.98524 15.7573C6.81724 15.6893 6.55224 15.6003 6.34524 15.5023C6.13824 15.4033 6.15824 15.3833 6.15824 15.3053C6.15824 15.2273 6.25624 15.1573 6.33524 15.1183C6.99501 14.8076 7.58205 14.3616 8.05824 13.8093C8.35824 13.4493 8.57824 13.0303 8.70824 12.5793C8.74965 12.4856 8.75543 12.3801 8.72449 12.2825C8.69355 12.1849 8.62803 12.102 8.54024 12.0493C8.27424 11.8713 7.99924 11.6943 7.74324 11.5073C7.60769 11.4121 7.48236 11.3032 7.36924 11.1823C7.32146 11.1147 7.2958 11.034 7.2958 10.9513C7.2958 10.8685 7.32146 10.7878 7.36924 10.7203C7.40457 10.6498 7.46241 10.5931 7.53361 10.5592C7.6048 10.5254 7.68526 10.5162 7.76224 10.5333C7.96557 10.5759 8.16557 10.6283 8.36224 10.6903L8.49224 10.7203L8.62524 10.7763C8.90124 10.8753 8.89524 10.7403 8.88524 10.4543C8.84139 9.81569 8.84139 9.17485 8.88524 8.53627C8.95269 8.02558 9.16588 7.54516 9.4993 7.1525C9.83272 6.75985 10.2722 6.4716 10.7652 6.32227C11.6071 6.00574 12.5393 6.0305 13.3632 6.39127C13.8989 6.59478 14.358 6.95966 14.6772 7.43546C14.9965 7.91126 15.16 8.47449 15.1452 9.04727V10.6223C15.1452 10.8773 15.1952 10.9073 15.4212 10.8283L16.0902 10.6023C16.1748 10.5865 16.2616 10.5865 16.3462 10.6023C16.4209 10.5957 16.4959 10.6108 16.5622 10.6457C16.6286 10.6806 16.6834 10.734 16.7202 10.7993C16.7687 10.8627 16.795 10.9404 16.795 11.0203C16.795 11.1001 16.7687 11.1778 16.7202 11.2413C16.6113 11.3657 16.4893 11.478 16.3562 11.5763C16.1292 11.7333 15.8932 11.8713 15.6562 12.0293C15.4212 12.1863 15.2832 12.3733 15.4112 12.7573C15.6416 13.4643 16.0853 14.0826 16.6812 14.5273C16.9962 14.7733 17.1872 14.8743 17.5432 15.1173C17.6942 15.2193 17.8422 15.2463 17.8322 15.3153Z" fill="white"/>
</svg>
