<svg width="12" height="12" viewBox="0 0 12 12" fill="none" xmlns="http://www.w3.org/2000/svg">
<path d="M3.53921 10.623H8.41571C8.92807 10.623 9.23428 10.3418 9.23428 9.79945V9.66874C9.23943 8.28252 7.763 7.15752 7.115 6.54488C6.93414 6.3741 6.83878 6.21852 6.83878 5.99245C6.83878 5.76638 6.93414 5.61574 7.11521 5.44002C7.75807 4.8171 9.2345 3.7626 9.2345 2.3211V2.20067C9.2345 1.6581 8.92807 1.37695 8.41593 1.37695H3.539C3.03671 1.37695 2.7605 1.6581 2.7605 2.15545V2.3211C2.7605 3.7626 4.23693 4.8171 4.88493 5.44002C5.06578 5.61574 5.16114 5.76638 5.16114 5.99245C5.16114 6.21852 5.06578 6.3741 4.88471 6.54488C4.23693 7.15774 2.7605 8.28274 2.7605 9.66874V9.84445C2.7605 10.3416 3.03671 10.623 3.539 10.623M4.06121 9.9351C3.82014 9.9351 3.74493 9.66874 3.98086 9.49302L5.69857 8.21224C5.75386 8.16724 5.78386 8.13702 5.78386 8.06159V5.64595C5.78386 5.37467 5.72857 5.23902 5.53786 5.07831C5.25157 4.83724 4.70921 4.4556 4.463 4.1091C4.3625 3.96852 4.37257 3.85302 4.49814 3.85302H7.49643C7.622 3.85302 7.63207 3.96852 7.53157 4.1091C7.28557 4.4556 6.74814 4.83724 6.45693 5.07831C6.26621 5.23902 6.21071 5.37467 6.21071 5.64595V8.06138C6.21071 8.13681 6.24093 8.16681 6.29621 8.21202L8.01886 9.49281C8.25478 9.66852 8.17443 9.93467 7.9385 9.93467L4.06121 9.9351Z" fill="#9CA3AF"/>
</svg>
