<svg width="24" height="24" viewBox="0 0 24 24" fill="none" xmlns="http://www.w3.org/2000/svg">
<path fill-rule="evenodd" clip-rule="evenodd" d="M5.63636 2C4.67194 2 3.74702 2.38312 3.06507 3.06507C2.38312 3.74702 2 4.67194 2 5.63636V18.3636C2 19.3281 2.38312 20.253 3.06507 20.9349C3.74702 21.6169 4.67194 22 5.63636 22H18.3636C19.3281 22 20.253 21.6169 20.9349 20.9349C21.6169 20.253 22 19.3281 22 18.3636V5.63636C22 4.67194 21.6169 3.74702 20.9349 3.06507C20.253 2.38312 19.3281 2 18.3636 2H5.63636ZM5.33273 5.18182C5.23321 5.2188 5.14371 5.27851 5.07134 5.3562C4.99898 5.43388 4.94575 5.52739 4.91591 5.62928C4.88607 5.73117 4.88043 5.83861 4.89945 5.94306C4.91847 6.04751 4.96162 6.14608 5.02545 6.23091L10.1291 13.0036L4.75182 18.7718L4.71182 18.8182H6.57273L10.9636 14.11L14.3382 18.59C14.4165 18.6937 14.5228 18.7729 14.6445 18.8182H18.6645C18.7639 18.781 18.8532 18.7211 18.9254 18.6434C18.9976 18.5656 19.0506 18.4721 19.0802 18.3702C19.1099 18.2683 19.1154 18.161 19.0962 18.0566C19.0771 17.9522 19.0339 17.8538 18.97 17.7691L13.8664 10.9964L19.2882 5.18182H17.4245L13.0336 9.89091L9.65727 5.41091C9.57911 5.30687 9.4728 5.22738 9.35091 5.18182H5.33273ZM15.2236 17.4982L6.93727 6.50182H8.77273L17.0582 17.4973L15.2236 17.4982Z" fill="white"/>
</svg>
